<svg width="257" height="39" viewBox="0 0 257 39" fill="none" xmlns="http://www.w3.org/2000/svg">
<path d="M20.9716 11.1307C20.8352 9.75568 20.25 8.6875 19.2159 7.92614C18.1818 7.16477 16.7784 6.78409 15.0057 6.78409C13.8011 6.78409 12.7841 6.95454 11.9545 7.29545C11.125 7.625 10.4886 8.08523 10.0455 8.67614C9.61364 9.26705 9.39773 9.9375 9.39773 10.6875C9.375 11.3125 9.50568 11.858 9.78977 12.3239C10.0852 12.7898 10.4886 13.1932 11 13.5341C11.5114 13.8636 12.1023 14.1534 12.7727 14.4034C13.4432 14.642 14.1591 14.8466 14.9205 15.017L18.0568 15.767C19.5795 16.108 20.9773 16.5625 22.25 17.1307C23.5227 17.6989 24.625 18.3977 25.5568 19.2273C26.4886 20.0568 27.2102 21.0341 27.7216 22.1591C28.2443 23.2841 28.5114 24.5739 28.5227 26.0284C28.5114 28.1648 27.9659 30.017 26.8864 31.5852C25.8182 33.142 24.2727 34.3523 22.25 35.2159C20.2386 36.0682 17.8125 36.4943 14.9716 36.4943C12.1534 36.4943 9.69886 36.0625 7.60795 35.1989C5.52841 34.3352 3.90341 33.0568 2.73295 31.3636C1.57386 29.6591 0.965909 27.5511 0.909091 25.0398H8.05114C8.13068 26.2102 8.46591 27.1875 9.05682 27.9716C9.65909 28.7443 10.4602 29.3295 11.4602 29.7273C12.4716 30.1136 13.6136 30.3068 14.8864 30.3068C16.1364 30.3068 17.2216 30.125 18.142 29.7614C19.0739 29.3977 19.7955 28.892 20.3068 28.2443C20.8182 27.5966 21.0739 26.8523 21.0739 26.0114C21.0739 25.2273 20.8409 24.5682 20.375 24.0341C19.9205 23.5 19.25 23.0455 18.3636 22.6705C17.4886 22.2955 16.4148 21.9545 15.142 21.6477L11.3409 20.6932C8.39773 19.9773 6.07386 18.858 4.36932 17.3352C2.66477 15.8125 1.81818 13.7614 1.82955 11.1818C1.81818 9.06818 2.38068 7.22159 3.51705 5.64205C4.66477 4.0625 6.23864 2.82955 8.23864 1.94318C10.2386 1.05682 12.5114 0.613635 15.0568 0.613635C17.6477 0.613635 19.9091 1.05682 21.8409 1.94318C23.7841 2.82955 25.2955 4.0625 26.375 5.64205C27.4545 7.22159 28.0114 9.05114 28.0455 11.1307H20.9716Z" fill="url(#paint0_linear_283_125)"/>
<path d="M32.7472 36V15.2727H38.2259V18.9297H38.4688C38.9006 17.7152 39.6203 16.7571 40.6278 16.0554C41.6354 15.3537 42.8409 15.0028 44.2443 15.0028C45.6657 15.0028 46.8757 15.3582 47.8743 16.0689C48.8729 16.7706 49.5386 17.7242 49.8715 18.9297H50.0874C50.5102 17.7422 51.2749 16.7931 52.3814 16.0824C53.4969 15.3627 54.8149 15.0028 56.3352 15.0028C58.2694 15.0028 59.8393 15.6191 61.0447 16.8516C62.2592 18.075 62.8665 19.8113 62.8665 22.0604V36H57.1314V23.1939C57.1314 22.0424 56.8255 21.1787 56.2138 20.603C55.602 20.0272 54.8374 19.7393 53.9197 19.7393C52.8762 19.7393 52.062 20.0722 51.4773 20.7379C50.8925 21.3946 50.6001 22.2628 50.6001 23.3423V36H45.027V23.0724C45.027 22.0559 44.7346 21.2462 44.1499 20.6435C43.5741 20.0407 42.8139 19.7393 41.8693 19.7393C41.2306 19.7393 40.6548 19.9013 40.142 20.2251C39.6383 20.54 39.2379 20.9853 38.9411 21.5611C38.6442 22.1278 38.4957 22.7936 38.4957 23.5582V36H32.7472ZM73.3178 36.3913C71.9954 36.3913 70.8169 36.1619 69.7823 35.7031C68.7478 35.2353 67.9291 34.5471 67.3263 33.6385C66.7326 32.7209 66.4357 31.5784 66.4357 30.2109C66.4357 29.0594 66.6471 28.0923 67.07 27.3097C67.4928 26.527 68.0685 25.8973 68.7972 25.4205C69.5259 24.9437 70.3536 24.5838 71.2802 24.3409C72.2158 24.098 73.1964 23.9271 74.2219 23.8281C75.4274 23.7022 76.399 23.5852 77.1367 23.4773C77.8744 23.3603 78.4097 23.1894 78.7425 22.9645C79.0754 22.7396 79.2418 22.4067 79.2418 21.9659V21.8849C79.2418 21.0303 78.9719 20.3691 78.4322 19.9013C77.9014 19.4335 77.1457 19.1996 76.1651 19.1996C75.1306 19.1996 74.3074 19.429 73.6957 19.8878C73.0839 20.3376 72.6791 20.9044 72.4812 21.5881L67.1644 21.1562C67.4343 19.8968 67.9651 18.8082 68.7567 17.8906C69.5484 16.964 70.5695 16.2533 71.82 15.7585C73.0794 15.2547 74.5368 15.0028 76.1921 15.0028C77.3436 15.0028 78.4457 15.1378 79.4982 15.4077C80.5598 15.6776 81.4999 16.0959 82.3185 16.6626C83.1462 17.2294 83.7984 17.9581 84.2752 18.8487C84.752 19.7303 84.9904 20.7874 84.9904 22.0199V36H79.5387V33.1257H79.3768C79.0439 33.7734 78.5986 34.3447 78.0408 34.8395C77.4831 35.3253 76.8129 35.7076 76.0302 35.9865C75.2475 36.2564 74.3434 36.3913 73.3178 36.3913ZM74.9641 32.424C75.8098 32.424 76.5565 32.2576 77.2042 31.9247C77.8519 31.5829 78.3602 31.1241 78.729 30.5483C79.0979 29.9725 79.2823 29.3203 79.2823 28.5916V26.392C79.1024 26.509 78.855 26.617 78.5401 26.7159C78.2343 26.8059 77.8879 26.8913 77.5011 26.9723C77.1142 27.0443 76.7274 27.1117 76.3406 27.1747C75.9537 27.2287 75.6029 27.2782 75.288 27.3232C74.6133 27.4221 74.024 27.5795 73.5202 27.7955C73.0165 28.0114 72.6251 28.3037 72.3462 28.6726C72.0674 29.0324 71.9279 29.4822 71.9279 30.022C71.9279 30.8047 72.2113 31.4029 72.7781 31.8168C73.3538 32.2216 74.0825 32.424 74.9641 32.424ZM89.4503 36V15.2727H95.0234V18.8892H95.2393C95.6172 17.6027 96.2514 16.6312 97.142 15.9744C98.0327 15.3087 99.0582 14.9759 100.219 14.9759C100.507 14.9759 100.817 14.9938 101.15 15.0298C101.483 15.0658 101.775 15.1153 102.027 15.1783V20.2791C101.757 20.1982 101.384 20.1262 100.907 20.0632C100.43 20.0002 99.9938 19.9688 99.598 19.9688C98.7524 19.9688 97.9967 20.1532 97.331 20.522C96.6742 20.8819 96.1525 21.3857 95.7656 22.0334C95.3878 22.6811 95.1989 23.4278 95.1989 24.2734V36H89.4503ZM117.063 15.2727V19.5909H104.581V15.2727H117.063ZM107.415 10.3068H113.163V29.6307C113.163 30.1615 113.244 30.5753 113.406 30.8722C113.568 31.16 113.793 31.3625 114.081 31.4794C114.378 31.5964 114.72 31.6548 115.106 31.6548C115.376 31.6548 115.646 31.6323 115.916 31.5874C116.186 31.5334 116.393 31.4929 116.537 31.4659L117.441 35.7436C117.153 35.8336 116.748 35.937 116.226 36.054C115.705 36.1799 115.07 36.2564 114.324 36.2834C112.938 36.3374 111.724 36.1529 110.68 35.7301C109.646 35.3073 108.84 34.6506 108.265 33.7599C107.689 32.8693 107.406 31.7448 107.415 30.3864V10.3068ZM180.441 27.1747V15.2727H186.19V36H180.671V32.2351H180.455C179.987 33.4496 179.209 34.4257 178.12 35.1634C177.041 35.901 175.723 36.2699 174.167 36.2699C172.781 36.2699 171.562 35.955 170.51 35.3253C169.457 34.6955 168.634 33.8004 168.04 32.6399C167.455 31.4794 167.158 30.0895 167.15 28.4702V15.2727H172.898V27.4446C172.907 28.6681 173.235 29.6352 173.883 30.3459C174.531 31.0566 175.399 31.4119 176.488 31.4119C177.18 31.4119 177.828 31.2545 178.431 30.9396C179.033 30.6158 179.519 30.139 179.888 29.5092C180.266 28.8795 180.45 28.1013 180.441 27.1747ZM200.234 36.4048C198.102 36.4048 196.267 35.973 194.729 35.1094C193.199 34.2367 192.021 33.0043 191.193 31.4119C190.365 29.8106 189.952 27.9169 189.952 25.7308C189.952 23.5987 190.365 21.7275 191.193 20.1172C192.021 18.5069 193.186 17.2519 194.688 16.3523C196.199 15.4527 197.972 15.0028 200.005 15.0028C201.372 15.0028 202.645 15.2232 203.824 15.6641C205.011 16.0959 206.046 16.7481 206.927 17.6207C207.818 18.4934 208.511 19.5909 209.006 20.9134C209.5 22.2268 209.748 23.7652 209.748 25.5284V27.1072H192.246V23.5447H204.336C204.336 22.7171 204.157 21.9839 203.797 21.3452C203.437 20.7064 202.938 20.2071 202.299 19.8473C201.669 19.4785 200.936 19.294 200.099 19.294C199.227 19.294 198.453 19.4964 197.778 19.9013C197.113 20.2971 196.591 20.8324 196.213 21.5071C195.835 22.1728 195.642 22.915 195.633 23.7337V27.1207C195.633 28.1463 195.822 29.0324 196.199 29.7791C196.586 30.5258 197.131 31.1016 197.832 31.5064C198.534 31.9112 199.366 32.1136 200.329 32.1136C200.967 32.1136 201.552 32.0237 202.083 31.8438C202.614 31.6638 203.068 31.3939 203.446 31.0341C203.824 30.6742 204.112 30.2334 204.309 29.7116L209.626 30.0625C209.356 31.34 208.803 32.4555 207.966 33.4091C207.139 34.3537 206.068 35.0914 204.755 35.6222C203.45 36.1439 201.943 36.4048 200.234 36.4048ZM226.791 27.1747V15.2727H232.54V36H227.02V32.2351H226.805C226.337 33.4496 225.559 34.4257 224.47 35.1634C223.39 35.901 222.073 36.2699 220.516 36.2699C219.131 36.2699 217.912 35.955 216.859 35.3253C215.807 34.6955 214.983 33.8004 214.39 32.6399C213.805 31.4794 213.508 30.0895 213.499 28.4702V15.2727H219.248V27.4446C219.257 28.6681 219.585 29.6352 220.233 30.3459C220.881 31.0566 221.749 31.4119 222.837 31.4119C223.53 31.4119 224.178 31.2545 224.78 30.9396C225.383 30.6158 225.869 30.139 226.238 29.5092C226.616 28.8795 226.8 28.1013 226.791 27.1747ZM246.584 36.4048C244.452 36.4048 242.616 35.973 241.078 35.1094C239.549 34.2367 238.37 33.0043 237.543 31.4119C236.715 29.8106 236.301 27.9169 236.301 25.7308C236.301 23.5987 236.715 21.7275 237.543 20.1172C238.37 18.5069 239.535 17.2519 241.038 16.3523C242.549 15.4527 244.321 15.0028 246.354 15.0028C247.722 15.0028 248.995 15.2232 250.173 15.6641C251.361 16.0959 252.395 16.7481 253.277 17.6207C254.168 18.4934 254.86 19.5909 255.355 20.9134C255.85 22.2268 256.097 23.7652 256.097 25.5284V27.1072H238.595V23.5447H250.686C250.686 22.7171 250.506 21.9839 250.146 21.3452C249.786 20.7064 249.287 20.2071 248.648 19.8473C248.019 19.4785 247.286 19.294 246.449 19.294C245.576 19.294 244.803 19.4964 244.128 19.9013C243.462 20.2971 242.94 20.8324 242.562 21.5071C242.185 22.1728 241.991 22.915 241.982 23.7337V27.1207C241.982 28.1463 242.171 29.0324 242.549 29.7791C242.936 30.5258 243.48 31.1016 244.182 31.5064C244.884 31.9112 245.716 32.1136 246.678 32.1136C247.317 32.1136 247.902 32.0237 248.433 31.8438C248.963 31.6638 249.418 31.3939 249.795 31.0341C250.173 30.6742 250.461 30.2334 250.659 29.7116L255.976 30.0625C255.706 31.34 255.153 32.4555 254.316 33.4091C253.488 34.3537 252.418 35.0914 251.104 35.6222C249.8 36.1439 248.293 36.4048 246.584 36.4048Z" fill="white"/>
<path d="M143.519 23.8636H149.792L152.945 27.9205L156.047 31.5341L161.894 38.8636H155.007L150.985 33.9205L148.922 30.9886L143.519 23.8636ZM162.422 18.5455C162.422 22.3523 161.701 25.5909 160.257 28.2614C158.826 30.9318 156.871 32.9716 154.394 34.3807C151.928 35.7784 149.155 36.4773 146.076 36.4773C142.973 36.4773 140.189 35.7727 137.723 34.3636C135.257 32.9545 133.309 30.9148 131.877 28.2443C130.445 25.5739 129.729 22.3409 129.729 18.5455C129.729 14.7386 130.445 11.5 131.877 8.82955C133.309 6.15909 135.257 4.125 137.723 2.72727C140.189 1.31818 142.973 0.613635 146.076 0.613635C149.155 0.613635 151.928 1.31818 154.394 2.72727C156.871 4.125 158.826 6.15909 160.257 8.82955C161.701 11.5 162.422 14.7386 162.422 18.5455ZM154.939 18.5455C154.939 16.0795 154.57 14 153.831 12.3068C153.104 10.6136 152.076 9.32955 150.746 8.45455C149.417 7.57955 147.86 7.14205 146.076 7.14205C144.292 7.14205 142.735 7.57955 141.405 8.45455C140.076 9.32955 139.042 10.6136 138.303 12.3068C137.576 14 137.212 16.0795 137.212 18.5455C137.212 21.0114 137.576 23.0909 138.303 24.7841C139.042 26.4773 140.076 27.7614 141.405 28.6364C142.735 29.5114 144.292 29.9489 146.076 29.9489C147.86 29.9489 149.417 29.5114 150.746 28.6364C152.076 27.7614 153.104 26.4773 153.831 24.7841C154.57 23.0909 154.939 21.0114 154.939 18.5455Z" fill="url(#paint1_linear_283_125)"/>
<defs>
<linearGradient id="paint0_linear_283_125" x1="129" y1="29.6736" x2="128.919" y2="48.0019" gradientUnits="userSpaceOnUse">
<stop stop-color="#FFE600"/>
<stop offset="1" stop-color="#FF6B00"/>
</linearGradient>
<linearGradient id="paint1_linear_283_125" x1="129" y1="27.6597" x2="128.919" y2="48.0017" gradientUnits="userSpaceOnUse">
<stop stop-color="#FFE500"/>
<stop offset="1" stop-color="#FF6B00"/>
</linearGradient>
</defs>
</svg>
